<svg width="31" height="29" viewBox="0 0 31 29" fill="none" xmlns="http://www.w3.org/2000/svg">
<path d="M20.5905 21.7053C20.8875 19.4348 19.3246 17.9873 15.1978 16.7548C13.1982 16.1168 12.2566 15.2806 12.2786 14.1315C12.3625 12.8555 13.6322 11.9263 15.3166 11.896C16.6432 11.9087 17.9371 12.2824 19.0405 12.9715C19.1903 13.0585 19.2949 13.044 19.3802 12.9231C19.4964 12.7491 19.787 12.3274 19.8839 12.174C19.9498 12.0773 19.9627 11.9492 19.7961 11.8356C19.5571 11.6701 18.8868 11.3342 18.5264 11.1928C17.5003 10.7855 16.3976 10.5743 15.283 10.5717C12.8159 10.5814 10.8745 12.0398 10.7105 13.9865C10.6059 15.3918 11.3499 16.5324 12.9451 17.4024C13.2848 17.5861 15.1151 18.2676 15.8436 18.4802C18.135 19.1473 19.3246 20.3435 19.0443 21.7391C18.7899 23.0042 17.3665 23.8223 15.4044 23.8465C13.8505 23.7909 12.4504 23.1976 11.3654 22.4085L11.1833 22.2756C11.0489 22.179 10.9017 22.185 10.8125 22.3119C10.748 22.4049 10.3269 22.9728 10.221 23.1215C10.1215 23.252 10.1758 23.3245 10.2791 23.4042C10.7312 23.7582 11.3344 24.1449 11.7438 24.3407C12.8781 24.881 14.1257 25.1809 15.398 25.2191C16.3139 25.2597 17.2284 25.1137 18.0782 24.7914C19.4925 24.2295 20.407 23.107 20.5905 21.7053ZM15.5 1.69288C12.8288 1.69288 10.6511 4.04912 10.549 6.99746H20.4497C20.345 4.04792 18.1686 1.69167 15.5 1.69167M25.6409 28.9976L25.5375 28.9988L5.14988 28.9964C3.76263 28.948 2.7435 27.8968 2.604 26.5906L2.59108 26.355L1.67788 7.59438C1.6717 7.51897 1.68207 7.44318 1.70836 7.37167C1.73465 7.30015 1.77629 7.23442 1.83073 7.17851C1.88517 7.12261 1.95125 7.0777 2.02493 7.04657C2.0986 7.01543 2.1783 6.99872 2.25913 6.99746H8.68517C8.84146 3.103 11.8317 0 15.5 0C19.1658 0 22.156 3.10421 22.3135 6.99625H28.7305C28.811 6.99631 28.8905 7.01168 28.9644 7.04142C29.0383 7.07116 29.1049 7.11465 29.1603 7.16925C29.2156 7.22385 29.2585 7.2884 29.2863 7.359C29.3141 7.42959 29.3263 7.50474 29.3221 7.57987L28.3237 26.4154L28.3146 26.5737C28.1932 27.8956 27.0501 28.9625 25.6409 28.9976Z" fill="#505050"/>
</svg>
