<svg width="34" height="35" viewBox="0 0 34 35" fill="none" xmlns="http://www.w3.org/2000/svg">
<path d="M19.1555 9.43684C16.7259 7.32444 7.22004 7.7984 7.22004 7.7984L6.88499 31.6057C6.88499 31.6057 19.5323 31.7034 23.4267 31.6057C27.3211 31.508 30.0432 28.3186 30.085 25.8613C30.1268 23.404 30.085 8.23007 30.085 8.23007C25.2273 7.62559 21.6261 8.10028 19.1555 9.43684Z" stroke="#505050" stroke-width="1.3" stroke-linecap="round" stroke-linejoin="round"/>
<path d="M13.8345 22.7122C16.5635 22.7122 18.7758 20.4348 18.7758 17.6255C18.7758 14.8162 16.5635 12.5388 13.8345 12.5388C11.1054 12.5388 8.89313 14.8162 8.89313 17.6255C8.89313 20.4348 11.1054 22.7122 13.8345 22.7122Z" stroke="#505050" stroke-width="1.3" stroke-linecap="round" stroke-linejoin="round"/>
<path d="M22.6971 21.3866C23.6882 21.8495 24.8099 21.9218 25.8494 21.5898C26.8889 21.2578 27.7738 20.5446 28.3363 19.5855C28.8987 18.6263 29.0996 17.488 28.9008 16.3865C28.702 15.285 28.1173 14.2969 27.2577 13.6098C26.3981 12.9226 25.3233 12.5842 24.2374 12.6587C23.1514 12.7332 22.1298 13.2155 21.3664 14.0141C20.603 14.8126 20.1509 15.8718 20.0959 16.9907C20.0409 18.1097 20.3868 19.2105 21.068 20.0843M7.22004 7.79853L4.03679 10.1698L3.89583 28.7067L6.885 31.6066M23.8673 8.0902C23.6531 6.78414 23.0026 5.59607 22.0281 4.73114C21.0537 3.86622 19.8164 3.37874 18.5299 3.35289C17.2435 3.32704 15.9886 3.76444 14.9821 4.58956C13.9756 5.41468 13.2806 6.57572 13.017 7.87218" stroke="#505050" stroke-width="1.3" stroke-linecap="round" stroke-linejoin="round"/>
<path d="M24.3638 14.3369C24.5314 14.7092 24.5641 15.1309 24.4562 15.526C24.3484 15.921 24.1069 16.2633 23.7754 16.4912C23.4439 16.7191 23.0443 16.8176 22.6485 16.7688C22.2527 16.7201 21.8868 16.5274 21.6169 16.2255C21.3732 16.8315 21.3253 17.5022 21.4802 18.1385C21.6351 18.7748 21.9847 19.3429 22.4772 19.759C22.9698 20.1752 23.5793 20.4172 24.2158 20.4495C24.8522 20.4817 25.4819 20.3025 26.0118 19.9381C26.5417 19.5738 26.9437 19.0438 27.1586 18.4262C27.3734 17.8087 27.3897 17.1364 27.205 16.5086C27.0203 15.8808 26.6444 15.3308 26.1328 14.9398C25.6212 14.5487 25.001 14.3374 24.3638 14.3369ZM14.5378 14.5885C14.6695 14.9883 14.6579 15.4235 14.5049 15.8152C14.352 16.2069 14.0679 16.5294 13.7041 16.7242C13.3402 16.919 12.9206 16.9733 12.5213 16.8773C12.1219 16.7812 11.7691 16.5412 11.5267 16.2007C11.2115 16.7916 11.0894 17.4713 11.1782 18.1392C11.267 18.8072 11.5621 19.428 12.02 19.9101C12.4778 20.3921 13.0741 20.7098 13.7208 20.8163C14.3675 20.9228 15.0303 20.8123 15.6114 20.5013C16.1924 20.1903 16.6609 19.6951 16.9476 19.089C17.2344 18.4829 17.3242 17.7979 17.2038 17.1352C17.0833 16.4725 16.7591 15.8673 16.2789 15.4088C15.7988 14.9504 15.1888 14.6623 14.5378 14.5885ZM16.0974 23.3256C16.0974 21.2716 19.0613 19.9381 20.9667 19.9381C22.6631 19.9381 23.8 22.1666 23.8 22.1666C22.1328 22.8971 21.0783 23.7418 19.2667 23.7078C20.311 24.7053 21.2566 24.8737 22.6667 25.0833C22.6667 25.0833 21.5076 26.8256 19.4974 26.8256C17.8639 26.8264 15.5307 24.4923 16.0974 23.3256Z" fill="#505050"/>
</svg>
