<svg width="30" height="30" viewBox="0 0 30 30" fill="none" xmlns="http://www.w3.org/2000/svg">
<g clip-path="url(#clip0_50_18)">
<path d="M29.8031 8.71816C29.8031 6.08144 27.8637 3.96035 25.4672 3.96035C22.2211 3.80859 18.9106 3.75 15.5273 3.75H14.4727C11.0977 3.75 7.78126 3.80859 4.53516 3.96094C2.14454 3.96094 0.205083 6.09375 0.205083 8.73047C0.0585991 10.8158 -0.00351026 12.9018 5.36113e-06 14.9877C-0.00585401 17.0736 0.0605523 19.1615 0.199224 21.2514C0.199224 23.8881 2.13868 26.0268 4.5293 26.0268C7.93946 26.185 11.4375 26.2553 14.9941 26.2494C18.5566 26.2611 22.0449 26.1869 25.459 26.0268C27.8555 26.0268 29.7949 23.8881 29.7949 21.2514C29.9356 19.1596 30 17.0736 29.9941 14.9818C30.0074 12.8959 29.9438 10.808 29.8031 8.71816ZM12.1289 20.7357V9.22207L20.625 14.976L12.1289 20.7357Z" fill="#505050"/>
</g>
<defs>
<clipPath id="clip0_50_18">
<rect width="30" height="30" fill="white"/>
</clipPath>
</defs>
</svg>
